<svg width="54" height="54" viewBox="0 0 54 54" fill="none" xmlns="http://www.w3.org/2000/svg">
<path d="M32.8847 23.9257C32.7256 23.6502 32.4255 23.4795 32.0999 23.4795H25.8782L26.6969 13.946C26.7311 13.5469 26.4811 13.1764 26.0905 13.0472C25.7015 12.9172 25.2687 13.0626 25.0445 13.3991L15.1447 28.2449C14.9653 28.5135 14.9517 28.8559 15.1095 29.1368C15.2673 29.4178 15.5705 29.5926 15.9 29.5926H22.1279L21.3026 40.0051C21.2706 40.4077 21.5272 40.7791 21.9231 40.9032C22.0145 40.9318 22.1077 40.9455 22.2 40.9455C22.5067 40.9455 22.8011 40.7924 22.9681 40.5276L32.868 24.8084C33.0377 24.539 33.0442 24.2012 32.8847 23.9257Z" fill="#647291"/>
</svg>
